<svg width="30" height="30" viewBox="0 0 30 30" fill="none" xmlns="http://www.w3.org/2000/svg">
<path d="M26.5 13.7188C26.5 19.6386 21.0151 24.4375 14.25 24.4375C13.0366 24.4402 11.8283 24.2827 10.6562 23.9689C9.76191 24.4222 7.7085 25.2919 4.254 25.8585C3.94775 25.9075 3.715 25.589 3.83597 25.3042C4.37803 24.0241 4.86803 22.3183 5.01503 20.7625C3.13925 18.8791 2 16.4137 2 13.7188C2 7.79894 7.48494 3 14.25 3C21.0151 3 26.5 7.79894 26.5 13.7188ZM9.65625 13.7188C9.65625 13.3126 9.49492 12.9232 9.20776 12.636C8.92059 12.3488 8.53111 12.1875 8.125 12.1875C7.71889 12.1875 7.32941 12.3488 7.04224 12.636C6.75508 12.9232 6.59375 13.3126 6.59375 13.7188C6.59375 14.1249 6.75508 14.5143 7.04224 14.8015C7.32941 15.0887 7.71889 15.25 8.125 15.25C8.53111 15.25 8.92059 15.0887 9.20776 14.8015C9.49492 14.5143 9.65625 14.1249 9.65625 13.7188ZM15.7812 13.7188C15.7812 13.3126 15.6199 12.9232 15.3328 12.636C15.0456 12.3488 14.6561 12.1875 14.25 12.1875C13.8439 12.1875 13.4544 12.3488 13.1672 12.636C12.8801 12.9232 12.7188 13.3126 12.7188 13.7188C12.7188 14.1249 12.8801 14.5143 13.1672 14.8015C13.4544 15.0887 13.8439 15.25 14.25 15.25C14.6561 15.25 15.0456 15.0887 15.3328 14.8015C15.6199 14.5143 15.7812 14.1249 15.7812 13.7188ZM20.375 15.25C20.7811 15.25 21.1706 15.0887 21.4578 14.8015C21.7449 14.5143 21.9062 14.1249 21.9062 13.7188C21.9062 13.3126 21.7449 12.9232 21.4578 12.636C21.1706 12.3488 20.7811 12.1875 20.375 12.1875C19.9689 12.1875 19.5794 12.3488 19.2922 12.636C19.0051 12.9232 18.8438 13.3126 18.8438 13.7188C18.8438 14.1249 19.0051 14.5143 19.2922 14.8015C19.5794 15.0887 19.9689 15.25 20.375 15.25Z" fill="#09D680"/>
</svg>
