<svg width="30" height="30" viewBox="0 0 30 30" fill="none" xmlns="http://www.w3.org/2000/svg">
<path d="M20.3833 2.84375C24.1508 2.84375 26.2486 5.01473 26.2486 8.73466V21.3336C26.2486 25.1146 24.1508 27.2368 20.3833 27.2368H10.1614C6.4537 27.2368 4.29492 25.1146 4.29492 21.3336V8.73466C4.29492 5.01473 6.4537 2.84375 10.1614 2.84375H20.3833ZM10.4907 19.6017C10.1248 19.5652 9.77115 19.7359 9.57601 20.053C9.38086 20.3579 9.38086 20.7604 9.57601 21.0775C9.77115 21.3824 10.1248 21.5654 10.4907 21.5166H20.0528C20.5394 21.4678 20.9066 21.0519 20.9066 20.5653C20.9066 20.0652 20.5394 19.6505 20.0528 19.6017H10.4907ZM20.0528 14.0389H10.4907C9.96507 14.0389 9.53942 14.467 9.53942 14.9915C9.53942 15.5159 9.96507 15.9428 10.4907 15.9428H20.0528C20.5772 15.9428 21.0041 15.5159 21.0041 14.9915C21.0041 14.467 20.5772 14.0389 20.0528 14.0389ZM14.1363 8.51512H10.4907V8.52732C9.96507 8.52732 9.53942 8.9542 9.53942 9.47865C9.53942 10.0031 9.96507 10.43 10.4907 10.43H14.1363C14.6619 10.43 15.0888 10.0031 15.0888 9.46523C15.0888 8.942 14.6619 8.51512 14.1363 8.51512Z" fill="#06ED8C"/>
</svg>
