<svg width="30" height="30" viewBox="0 0 30 30" fill="none" xmlns="http://www.w3.org/2000/svg">
<path d="M3.355 2H11.485C12.2302 2 12.84 2.60975 12.84 3.355V11.485C12.84 12.2302 12.2302 12.84 11.485 12.84H3.355C2.60975 12.84 2 12.2302 2 11.485V3.355C2 2.60975 2.60975 2 3.355 2ZM16.905 2H25.035C25.7802 2 26.39 2.60975 26.39 3.355V11.485C26.39 12.2302 25.7802 12.84 25.035 12.84H16.905C16.1597 12.84 15.55 12.2302 15.55 11.485V3.355C15.55 2.60975 16.1597 2 16.905 2ZM3.355 15.55H11.485C12.2302 15.55 12.84 16.1597 12.84 16.905V25.035C12.84 25.7802 12.2302 26.39 11.485 26.39H3.355C2.60975 26.39 2 25.7802 2 25.035V16.905C2 16.1597 2.60975 15.55 3.355 15.55ZM20.97 15.55C20.2247 15.55 19.615 16.1597 19.615 16.905V19.615H16.905C16.1597 19.615 15.55 20.2247 15.55 20.97C15.55 21.7152 16.1597 22.325 16.905 22.325H19.615V25.035C19.615 25.7802 20.2247 26.39 20.97 26.39C21.7152 26.39 22.325 25.7802 22.325 25.035V22.325H25.035C25.7802 22.325 26.39 21.7152 26.39 20.97C26.39 20.2247 25.7802 19.615 25.035 19.615H22.325V16.905C22.325 16.1597 21.7152 15.55 20.97 15.55Z" fill="#376AEF" fill-opacity="0.87"/>
</svg>
