<svg width="30" height="31" viewBox="0 0 30 31" fill="none" xmlns="http://www.w3.org/2000/svg">
<path d="M16.147 3.37988C17.0693 3.37988 17.9045 3.89214 18.3656 4.64832C18.59 5.01421 18.7396 5.46548 18.7022 5.94115C18.6772 6.30704 18.7894 6.67294 18.9888 7.01444C19.6245 8.05114 21.033 8.44143 22.1299 7.856C23.3638 7.1486 24.9219 7.57548 25.6323 8.78293L26.4674 10.2221C27.1904 11.4296 26.7915 12.9785 25.5451 13.6737C24.4856 14.2957 24.1117 15.674 24.7474 16.7229C24.9468 17.0522 25.1711 17.3327 25.5201 17.5034C25.9564 17.7352 26.2929 18.1011 26.5297 18.467C26.9909 19.2231 26.9535 20.1501 26.5048 20.9672L25.6323 22.4308C25.1711 23.2114 24.3111 23.6993 23.4261 23.6993C22.9899 23.6993 22.5038 23.5773 22.1049 23.3334C21.7809 23.126 21.4069 23.0528 21.0081 23.0528C19.7741 23.0528 18.7396 24.0651 18.7022 25.2726C18.7022 26.6752 17.5555 27.7729 16.1221 27.7729H14.4269C12.9811 27.7729 11.8343 26.6752 11.8343 25.2726C11.8094 24.0651 10.7749 23.0528 9.54091 23.0528C9.12958 23.0528 8.75565 23.126 8.44405 23.3334C8.04519 23.5773 7.54662 23.6993 7.12283 23.6993C6.2254 23.6993 5.36536 23.2114 4.90418 22.4308L4.04415 20.9672C3.58297 20.1745 3.55804 19.2231 4.01922 18.467C4.21865 18.1011 4.59258 17.7352 5.01636 17.5034C5.36536 17.3327 5.58972 17.0522 5.80161 16.7229C6.42483 15.674 6.0509 14.2957 4.99144 13.6737C3.75747 12.9785 3.35861 11.4296 4.06908 10.2221L4.90418 8.78293C5.62711 7.57548 7.17269 7.1486 8.41912 7.856C9.50351 8.44143 10.912 8.05114 11.5477 7.01444C11.7471 6.67294 11.8593 6.30704 11.8343 5.94115C11.8094 5.46548 11.9465 5.01421 12.1833 4.64832C12.6445 3.89214 13.4796 3.40428 14.3895 3.37988H16.147ZM15.2869 12.137C13.3301 12.137 11.7471 13.6737 11.7471 15.5886C11.7471 17.5034 13.3301 19.028 15.2869 19.028C17.2438 19.028 18.7894 17.5034 18.7894 15.5886C18.7894 13.6737 17.2438 12.137 15.2869 12.137Z" fill="#09D680"/>
</svg>
