<svg width="21" height="22" viewBox="0 0 21 22" fill="none" xmlns="http://www.w3.org/2000/svg">
<g id="Plus">
<path id="Icon" fill-rule="evenodd" clip-rule="evenodd" d="M10.5 5.5C11.0799 5.5 11.55 5.99249 11.55 6.6V9.9L14.7 9.9C15.2799 9.9 15.75 10.3925 15.75 11C15.75 11.6075 15.2799 12.1 14.7 12.1H11.55V15.4C11.55 16.0075 11.0799 16.5 10.5 16.5C9.9201 16.5 9.45 16.0075 9.45 15.4V12.1H6.3C5.7201 12.1 5.25 11.6075 5.25 11C5.25 10.3925 5.7201 9.9 6.3 9.9H9.45V6.6C9.45 5.99249 9.9201 5.5 10.5 5.5Z" fill="#106633"/>
</g>
</svg>
