<svg width="30" height="30" viewBox="0 0 30 30" fill="none" xmlns="http://www.w3.org/2000/svg">
<path d="M20.326 2.45011C22.0805 2.34045 23.8106 2.94965 25.1143 4.14367C26.3083 5.44734 26.9175 7.17746 26.82 8.94412V20.3239C26.9297 22.0905 26.3083 23.8207 25.1265 25.1243C23.8228 26.3184 22.0805 26.9275 20.326 26.8179H8.94613C7.17945 26.9275 5.44932 26.3184 4.14563 25.1243C2.9516 23.8207 2.3424 22.0905 2.45206 20.3239V8.94412C2.3424 7.17746 2.9516 5.44734 4.14563 4.14367C5.44932 2.94965 7.17945 2.34045 8.94613 2.45011H20.326ZM20.0092 8.01815C19.2538 7.26274 18.0354 7.26274 17.28 8.01815L16.4637 8.84665C16.3418 8.96849 16.3418 9.17562 16.4637 9.29745C16.4637 9.29745 16.4876 9.32122 16.5301 9.36354L16.8298 9.66159C17.0032 9.83407 17.2196 10.0495 17.4368 10.2661L18.1736 11.0025C18.3273 11.1569 18.4293 11.2604 18.4375 11.2712C18.5715 11.4175 18.6568 11.6124 18.6568 11.8317C18.6568 12.2703 18.3034 12.6358 17.8526 12.6358C17.6455 12.6358 17.4506 12.5506 17.3165 12.4165L15.2818 10.394C15.1843 10.2965 15.0138 10.2965 14.9163 10.394L9.10452 16.2057C8.70245 16.6078 8.47095 17.1439 8.45877 17.7165L8.38566 20.6041C8.38566 20.7625 8.4344 20.9087 8.54406 21.0184C8.65371 21.128 8.79992 21.1889 8.95831 21.1889H11.8215C12.4064 21.1889 12.9668 20.9574 13.3933 20.5432L21.5931 12.3191C22.3363 11.5637 22.3363 10.3453 21.5931 9.60205L20.0092 8.01815Z" fill="#1BDC97"/>
</svg>
