<svg width="22" height="22" viewBox="0 0 22 22" fill="none" xmlns="http://www.w3.org/2000/svg">
<path d="M18.9962 3.79688H17.6578H3.00377C2.45282 3.79688 2.0058 4.24356 2.0058 4.79489C2.0058 5.34618 2.45282 5.79287 3.00377 5.79287H3.34425V18.7605C3.34425 20.1671 4.48905 21.312 5.89573 21.312H16.1042C17.5109 21.312 18.6557 20.1671 18.6557 18.7605V5.79287H18.9962C19.5472 5.79287 19.9942 5.34618 19.9942 4.79489C19.9942 4.24356 19.5472 3.79688 18.9962 3.79688ZM16.6598 18.7605C16.6598 19.0665 16.4103 19.316 16.1043 19.316H5.89573C5.5897 19.316 5.3402 19.0665 5.3402 18.7605V5.79287H16.6598V18.7605Z" fill="#D32F2F"/>
<path d="M7.89299 2.68345H14.107C14.658 2.68345 15.105 2.23677 15.105 1.68548C15.105 1.13418 14.658 0.6875 14.107 0.6875H7.89299C7.34204 0.6875 6.89502 1.13418 6.89502 1.68548C6.89502 2.23677 7.34203 2.68345 7.89299 2.68345Z" fill="#D32F2F"/>
<path d="M8.67009 17.5705C9.22105 17.5705 9.66807 17.1235 9.66807 16.5726V8.53704C9.66807 7.98575 9.22105 7.53906 8.67009 7.53906C8.11914 7.53906 7.67212 7.98575 7.67212 8.53704V16.5726C7.67212 17.1235 8.11914 17.5705 8.67009 17.5705Z" fill="#D32F2F"/>
<path d="M13.3299 17.5705C13.8808 17.5705 14.3279 17.1235 14.3279 16.5726V8.53704C14.3279 7.98575 13.8808 7.53906 13.3299 7.53906C12.7789 7.53906 12.3319 7.98575 12.3319 8.53704V16.5726C12.3319 17.1235 12.7789 17.5705 13.3299 17.5705Z" fill="#D32F2F"/>
</svg>
