<svg width="130" height="130" viewBox="0 0 130 130" fill="none" xmlns="http://www.w3.org/2000/svg">
<path opacity="0.6" d="M77.9988 90.9967C77.9988 102.502 72.9939 112.901 64.999 119.986C58.1091 126.226 49.0092 129.996 38.9994 129.996C17.4847 129.996 0 112.511 0 90.9967C0 73.057 12.2198 57.8472 28.7296 53.3623C33.2145 64.6721 42.8343 73.382 54.7291 76.6319C57.9791 77.5419 61.424 77.9969 64.999 77.9969C68.5739 77.9969 72.0189 77.5419 75.2688 76.6319C77.0238 81.0519 77.9988 85.9268 77.9988 90.9967Z" fill="#1CD693"/>
<path d="M104.001 38.9994C104.001 44.0693 103.026 48.9442 101.271 53.3642C96.7859 64.674 87.166 73.3839 75.2712 76.6338C72.0212 77.5438 68.5763 77.9988 65.0013 77.9988C61.4264 77.9988 57.9815 77.5438 54.7315 76.6338C42.8367 73.3839 33.2168 64.674 28.7319 53.3642C26.9769 48.9442 26.002 44.0693 26.002 38.9994C26.002 17.4847 43.4867 0 65.0013 0C86.516 0 104.001 17.4847 104.001 38.9994Z" fill="#1CD693"/>
<path opacity="0.4" d="M130.001 90.9967C130.001 112.511 112.516 129.996 91.0015 129.996C80.9917 129.996 71.8918 126.226 65.002 119.986C72.9968 112.901 78.0017 102.502 78.0017 90.9967C78.0017 85.9268 77.0268 81.0519 75.2718 76.6319C87.1666 73.382 96.7865 64.6721 101.271 53.3623C117.781 57.8472 130.001 73.057 130.001 90.9967Z" fill="#1CD693"/>
</svg>
