<svg width="207" height="50" viewBox="0 0 207 50" fill="none" xmlns="http://www.w3.org/2000/svg">
<path d="M78.6 16.55V19.375H73.95V34H70.45V19.375H65.8V16.55H78.6ZM80.2537 27.025C80.2537 25.625 80.5287 24.3833 81.0787 23.3C81.6454 22.2167 82.4037 21.3833 83.3537 20.8C84.3204 20.2167 85.3954 19.925 86.5787 19.925C87.612 19.925 88.512 20.1333 89.2787 20.55C90.062 20.9667 90.687 21.4917 91.1537 22.125V20.15H94.6787V34H91.1537V31.975C90.7037 32.625 90.0787 33.1667 89.2787 33.6C88.4954 34.0167 87.587 34.225 86.5537 34.225C85.387 34.225 84.3204 33.925 83.3537 33.325C82.4037 32.725 81.6454 31.8833 81.0787 30.8C80.5287 29.7 80.2537 28.4417 80.2537 27.025ZM91.1537 27.075C91.1537 26.225 90.987 25.5 90.6537 24.9C90.3204 24.2833 89.8704 23.8167 89.3037 23.5C88.737 23.1667 88.1287 23 87.4787 23C86.8287 23 86.2287 23.1583 85.6787 23.475C85.1287 23.7917 84.6787 24.2583 84.3287 24.875C83.9954 25.475 83.8287 26.1917 83.8287 27.025C83.8287 27.8583 83.9954 28.5917 84.3287 29.225C84.6787 29.8417 85.1287 30.3167 85.6787 30.65C86.2454 30.9833 86.8454 31.15 87.4787 31.15C88.1287 31.15 88.737 30.9917 89.3037 30.675C89.8704 30.3417 90.3204 29.875 90.6537 29.275C90.987 28.6583 91.1537 27.925 91.1537 27.075ZM101.597 15.5V34H98.0971V15.5H101.597ZM117.93 26.775C117.93 27.275 117.897 27.725 117.83 28.125H107.705C107.788 29.125 108.138 29.9083 108.755 30.475C109.372 31.0417 110.13 31.325 111.03 31.325C112.33 31.325 113.255 30.7667 113.805 29.65H117.58C117.18 30.9833 116.413 32.0833 115.28 32.95C114.147 33.8 112.755 34.225 111.105 34.225C109.772 34.225 108.572 33.9333 107.505 33.35C106.455 32.75 105.63 31.9083 105.03 30.825C104.447 29.7417 104.155 28.4917 104.155 27.075C104.155 25.6417 104.447 24.3833 105.03 23.3C105.613 22.2167 106.43 21.3833 107.48 20.8C108.53 20.2167 109.738 19.925 111.105 19.925C112.422 19.925 113.597 20.2083 114.63 20.775C115.68 21.3417 116.488 22.15 117.055 23.2C117.638 24.2333 117.93 25.425 117.93 26.775ZM114.305 25.775C114.288 24.875 113.963 24.1583 113.33 23.625C112.697 23.075 111.922 22.8 111.005 22.8C110.138 22.8 109.405 23.0667 108.805 23.6C108.222 24.1167 107.863 24.8417 107.73 25.775H114.305ZM128.16 19.95C129.81 19.95 131.143 20.475 132.16 21.525C133.176 22.5583 133.685 24.0083 133.685 25.875V34H130.185V26.35C130.185 25.25 129.91 24.4083 129.36 23.825C128.81 23.225 128.06 22.925 127.11 22.925C126.143 22.925 125.376 23.225 124.81 23.825C124.26 24.4083 123.985 25.25 123.985 26.35V34H120.485V20.15H123.985V21.875C124.451 21.275 125.043 20.8083 125.76 20.475C126.493 20.125 127.293 19.95 128.16 19.95ZM141.088 23.025V29.725C141.088 30.1917 141.196 30.5333 141.413 30.75C141.646 30.95 142.03 31.05 142.563 31.05H144.188V34H141.988C139.038 34 137.563 32.5667 137.563 29.7V23.025H135.913V20.15H137.563V16.725H141.088V20.15H144.188V23.025H141.088ZM167.138 16.55V34H163.638V26.575H156.163V34H152.663V16.55H156.163V23.725H163.638V16.55H167.138ZM172.357 18.5C171.741 18.5 171.224 18.3083 170.807 17.925C170.407 17.525 170.207 17.0333 170.207 16.45C170.207 15.8667 170.407 15.3833 170.807 15C171.224 14.6 171.741 14.4 172.357 14.4C172.974 14.4 173.482 14.6 173.882 15C174.299 15.3833 174.507 15.8667 174.507 16.45C174.507 17.0333 174.299 17.525 173.882 17.925C173.482 18.3083 172.974 18.5 172.357 18.5ZM174.082 20.15V34H170.582V20.15H174.082ZM183.315 30.775L186.815 20.15H190.54L185.415 34H181.165L176.065 20.15H179.815L183.315 30.775ZM205.381 26.775C205.381 27.275 205.348 27.725 205.281 28.125H195.156C195.24 29.125 195.59 29.9083 196.206 30.475C196.823 31.0417 197.581 31.325 198.481 31.325C199.781 31.325 200.706 30.7667 201.256 29.65H205.031C204.631 30.9833 203.865 32.0833 202.731 32.95C201.598 33.8 200.206 34.225 198.556 34.225C197.223 34.225 196.023 33.9333 194.956 33.35C193.906 32.75 193.081 31.9083 192.481 30.825C191.898 29.7417 191.606 28.4917 191.606 27.075C191.606 25.6417 191.898 24.3833 192.481 23.3C193.065 22.2167 193.881 21.3833 194.931 20.8C195.981 20.2167 197.19 19.925 198.556 19.925C199.873 19.925 201.048 20.2083 202.081 20.775C203.131 21.3417 203.94 22.15 204.506 23.2C205.09 24.2333 205.381 25.425 205.381 26.775ZM201.756 25.775C201.74 24.875 201.415 24.1583 200.781 23.625C200.148 23.075 199.373 22.8 198.456 22.8C197.59 22.8 196.856 23.0667 196.256 23.6C195.673 24.1167 195.315 24.8417 195.181 25.775H201.756Z" fill="#0B3051"/>
<path opacity="0.6" d="M29.166 33.333C29.166 37.0205 27.5618 40.3538 24.9993 42.6247C22.791 44.6247 19.8743 45.833 16.666 45.833C9.77018 45.833 4.16602 40.2288 4.16602 33.333C4.16602 27.583 8.08268 22.708 13.3743 21.2705C14.8118 24.8955 17.8952 27.6872 21.7077 28.7288C22.7493 29.0205 23.8535 29.1663 24.9993 29.1663C26.1452 29.1663 27.2493 29.0205 28.291 28.7288C28.8535 30.1455 29.166 31.708 29.166 33.333Z" fill="#1CD693"/>
<path d="M37.5 16.667C37.5 18.292 37.1875 19.8545 36.625 21.2712C35.1875 24.8962 32.1042 27.6878 28.2917 28.7295C27.25 29.0212 26.1458 29.167 25 29.167C23.8542 29.167 22.75 29.0212 21.7083 28.7295C17.8958 27.6878 14.8125 24.8962 13.375 21.2712C12.8125 19.8545 12.5 18.292 12.5 16.667C12.5 9.77116 18.1042 4.16699 25 4.16699C31.8958 4.16699 37.5 9.77116 37.5 16.667Z" fill="#1CD693"/>
<path opacity="0.4" d="M45.8333 33.333C45.8333 40.2288 40.2292 45.833 33.3333 45.833C30.125 45.833 27.2083 44.6247 25 42.6247C27.5625 40.3538 29.1667 37.0205 29.1667 33.333C29.1667 31.708 28.8542 30.1455 28.2917 28.7288C32.1042 27.6872 35.1875 24.8955 36.625 21.2705C41.9167 22.708 45.8333 27.583 45.8333 33.333Z" fill="#1CD693"/>
</svg>
